<?xml version="1.0" encoding="UTF-8"?>
<svg xmlns="http://www.w3.org/2000/svg" xmlns:xlink="http://www.w3.org/1999/xlink" width="100px" height="72px" viewBox="0 0 100 72" version="1.1">
<defs>
<radialGradient id="radial0" gradientUnits="userSpaceOnUse" cx="944.52" cy="281.8" fx="944.52" fy="281.8" r="760.12" gradientTransform="matrix(0.0948865,0,0,-0.0953633,0.507523,56.434911)">
<stop offset="0.01" style="stop-color:rgb(100%,100%,100%);stop-opacity:1;"/>
<stop offset="0.03" style="stop-color:rgb(79.607843%,100%,100%);stop-opacity:1;"/>
<stop offset="0.06" style="stop-color:rgb(58.823529%,100%,100%);stop-opacity:1;"/>
<stop offset="0.08" style="stop-color:rgb(40.784314%,100%,100%);stop-opacity:1;"/>
<stop offset="0.11" style="stop-color:rgb(26.27451%,100%,100%);stop-opacity:1;"/>
<stop offset="0.14" style="stop-color:rgb(14.509804%,100%,100%);stop-opacity:1;"/>
<stop offset="0.16" style="stop-color:rgb(6.666667%,100%,100%);stop-opacity:1;"/>
<stop offset="0.19" style="stop-color:rgb(1.568627%,100%,100%);stop-opacity:1;"/>
<stop offset="0.22" style="stop-color:rgb(0%,100%,100%);stop-opacity:1;"/>
<stop offset="1" style="stop-color:rgb(0%,0%,100%);stop-opacity:0;"/>
</radialGradient>
</defs>
<g id="surface1">
<path style=" stroke:none;fill-rule:nonzero;fill:rgb(100%,100%,100%);fill-opacity:1;" d="M 70.515625 37.742188 C 69.148438 38.058594 65.550781 38.238281 65.550781 38.238281 L 65.097656 39.671875 C 65.097656 39.671875 66.890625 39.515625 68.199219 39.652344 C 68.199219 39.652344 68.625 39.601562 68.675781 40.136719 C 68.683594 40.480469 68.671875 40.824219 68.636719 41.167969 C 68.636719 41.167969 68.609375 41.492188 68.152344 41.566406 C 67.660156 41.652344 64.28125 41.777344 64.28125 41.777344 L 63.730469 43.636719 C 63.730469 43.636719 63.53125 44.066406 63.988281 43.941406 C 64.414062 43.828125 67.953125 43.160156 68.417969 43.253906 C 68.910156 43.378906 69.460938 44.039062 69.300781 44.648438 C 69.109375 45.390625 65.582031 47.660156 63.425781 47.5 C 63.425781 47.5 62.296875 47.574219 61.339844 46.039062 C 60.449219 44.582031 61.679688 41.804688 61.679688 41.804688 C 61.679688 41.804688 61.121094 40.507812 61.527344 40.082031 C 61.527344 40.082031 61.777344 39.859375 62.476562 39.804688 L 63.339844 38 C 63.339844 38 62.355469 38.066406 61.765625 37.34375 C 61.214844 36.648438 61.179688 36.332031 61.59375 36.140625 C 62.042969 35.921875 66.148438 35.167969 68.976562 35.265625 C 68.976562 35.265625 69.964844 35.167969 70.808594 36.886719 C 70.800781 36.886719 71.21875 37.582031 70.515625 37.742188 Z M 59.878906 44.667969 C 59.515625 45.523438 58.558594 46.441406 57.371094 45.867188 C 56.1875 45.296875 54.328125 41.453125 54.328125 41.453125 C 54.328125 41.453125 53.617188 40.023438 53.484375 40.050781 C 53.484375 40.050781 53.332031 39.773438 53.234375 41.339844 C 53.140625 42.902344 53.253906 45.945312 52.636719 46.421875 C 52.050781 46.898438 51.339844 46.707031 50.96875 46.144531 C 50.636719 45.59375 50.492188 44.277344 50.675781 41.96875 C 50.890625 39.660156 51.421875 37.199219 52.105469 36.425781 C 52.789062 35.65625 53.339844 36.21875 53.550781 36.417969 C 53.550781 36.417969 54.460938 37.246094 55.96875 39.6875 L 56.234375 40.136719 C 56.234375 40.136719 57.601562 42.445312 57.742188 42.4375 C 57.742188 42.4375 57.855469 42.539062 57.953125 42.464844 C 58.09375 42.425781 58.039062 41.683594 58.039062 41.683594 C 58.039062 41.683594 57.753906 39.175781 56.507812 34.921875 C 56.507812 34.921875 56.320312 34.386719 56.453125 33.890625 C 56.585938 33.394531 57.078125 33.625 57.078125 33.625 C 57.078125 33.625 59.015625 34.597656 59.945312 37.761719 C 60.863281 40.957031 60.238281 43.808594 59.878906 44.667969 Z M 50.371094 36.53125 C 50.210938 36.855469 50.113281 37.324219 49.296875 37.449219 C 49.296875 37.449219 41.488281 37.980469 41.117188 38.535156 C 41.117188 38.535156 40.84375 38.859375 41.269531 38.953125 C 41.699219 39.050781 43.460938 39.277344 44.316406 39.328125 C 45.226562 39.335938 48.300781 39.363281 49.402344 40.746094 C 49.402344 40.746094 50.058594 41.40625 50.027344 42.894531 C 50 44.417969 49.734375 44.953125 49.144531 45.507812 C 48.53125 46.019531 43.234375 48.40625 39.820312 44.742188 C 39.820312 44.742188 38.242188 42.980469 40.359375 41.644531 C 40.359375 41.644531 41.886719 40.71875 45.769531 41.804688 C 45.769531 41.804688 46.945312 42.234375 46.886719 42.664062 C 46.820312 43.121094 45.921875 43.609375 44.609375 43.578125 C 43.339844 43.542969 42.410156 42.929688 42.589844 43.027344 C 42.761719 43.09375 41.222656 42.28125 40.75 42.835938 C 40.273438 43.339844 40.386719 43.65625 40.851562 43.972656 C 42.039062 44.648438 46.621094 44.410156 47.988281 42.882812 C 47.988281 42.882812 48.53125 42.265625 47.703125 41.757812 C 46.878906 41.28125 44.515625 40.996094 43.59375 40.949219 C 42.714844 40.898438 39.429688 40.957031 38.957031 40.082031 C 38.957031 40.082031 38.480469 39.488281 39.003906 37.808594 C 39.554688 36.054688 43.378906 35.378906 45.027344 35.226562 C 45.027344 35.226562 49.574219 35.0625 50.410156 36 C 50.464844 36.175781 50.449219 36.367188 50.371094 36.53125 Z M 37.464844 46.824219 C 36.914062 47.230469 35.75 47.050781 35.417969 46.59375 C 35.085938 46.183594 34.96875 44.550781 35.035156 41.996094 C 35.101562 39.414062 35.160156 36.207031 35.710938 35.703125 C 36.296875 35.1875 36.660156 35.636719 36.886719 35.988281 C 37.132812 36.332031 37.429688 36.714844 37.496094 37.523438 C 37.5625 38.335938 37.742188 42.589844 37.742188 42.589844 C 37.742188 42.589844 37.988281 46.421875 37.464844 46.824219 Z M 38.652344 33.109375 C 37.046875 33.644531 35.949219 33.460938 35.019531 33.0625 C 34.609375 33.777344 34.371094 33.996094 34.058594 34.042969 C 33.605469 34.089844 33.195312 33.355469 33.121094 33.117188 C 33.042969 32.9375 32.824219 32.632812 33.089844 31.90625 C 32.179688 31.085938 32.113281 29.980469 32.265625 29.238281 C 32.492188 28.378906 34.03125 25.117188 38.707031 24.734375 C 38.707031 24.734375 40.996094 24.566406 41.382812 25.792969 L 41.449219 25.792969 C 41.449219 25.792969 43.671875 25.804688 43.625 27.789062 C 43.59375 29.78125 41.15625 32.261719 38.652344 33.109375 Z M 34.289062 28.695312 C 33.8125 29.457031 33.792969 29.914062 34.011719 30.230469 C 34.554688 29.398438 35.539062 28.09375 36.992188 27.101562 C 35.871094 27.195312 34.933594 27.683594 34.289062 28.695312 Z M 40.75 27.414062 C 39.277344 27.636719 37 29.617188 35.917969 31.238281 C 37.578125 31.546875 40.511719 31.429688 41.8125 28.769531 C 41.800781 28.769531 42.429688 27.121094 40.75 27.414062 Z M 80.675781 42.777344 C 79.792969 44.324219 77.316406 47.546875 74.015625 46.792969 C 72.925781 49.453125 72.015625 52.132812 71.492188 56.160156 C 71.492188 56.160156 71.378906 56.941406 70.734375 56.664062 C 70.097656 56.433594 69.035156 55.367188 68.824219 53.890625 C 68.597656 51.941406 69.460938 48.652344 71.21875 44.886719 C 70.703125 44.046875 70.351562 42.84375 70.65625 41.136719 C 70.65625 41.136719 71.101562 37.972656 74.261719 35.113281 C 74.261719 35.113281 74.640625 34.777344 74.859375 34.882812 C 75.105469 34.988281 74.992188 36.019531 74.792969 36.511719 C 74.59375 37.007812 73.179688 39.46875 73.179688 39.46875 C 73.179688 39.46875 72.296875 41.128906 72.546875 42.4375 C 74.207031 39.871094 77.980469 34.691406 80.324219 36.324219 C 81.113281 36.886719 81.472656 38.117188 81.472656 39.441406 C 81.464844 40.613281 81.191406 41.855469 80.675781 42.777344 Z M 79.992188 38.714844 C 79.992188 38.714844 79.859375 37.695312 78.875 38.820312 C 78.019531 39.765625 76.484375 41.546875 75.238281 43.960938 C 76.539062 43.816406 77.792969 43.101562 78.171875 42.742188 C 78.789062 42.1875 80.222656 40.699219 79.992188 38.714844 Z M 33.925781 40.011719 C 33.746094 42.320312 32.863281 46.203125 26.609375 48.121094 C 22.484375 49.367188 18.582031 48.769531 16.457031 48.222656 C 16.410156 49.074219 16.316406 49.433594 16.183594 49.578125 C 16.003906 49.757812 14.65625 50.542969 13.914062 49.433594 C 13.582031 48.910156 13.410156 47.957031 13.316406 47.109375 C 8.535156 44.894531 6.332031 41.710938 6.25 41.566406 C 6.144531 41.460938 5.050781 40.320312 6.144531 38.917969 C 7.167969 37.648438 10.519531 36.378906 13.535156 35.863281 C 13.640625 33.269531 13.945312 31.316406 14.304688 30.417969 C 14.742188 29.378906 15.289062 30.316406 15.765625 31.019531 C 16.164062 31.546875 16.402344 33.804688 16.421875 35.609375 C 18.394531 35.511719 19.5625 35.65625 21.761719 36.054688 C 24.628906 36.582031 26.542969 38.050781 26.375 39.71875 C 26.25 41.359375 24.75 42.035156 24.183594 42.082031 C 23.582031 42.128906 22.652344 41.703125 22.652344 41.703125 C 22.019531 41.394531 22.605469 41.128906 23.375 40.796875 C 24.210938 40.386719 24.019531 39.964844 24.019531 39.964844 C 23.707031 39.050781 19.988281 38.410156 16.289062 38.410156 C 16.269531 40.460938 16.371094 43.867188 16.421875 45.847656 C 19.011719 46.34375 20.945312 46.25 20.945312 46.25 C 20.945312 46.25 30.398438 45.984375 30.679688 39.917969 C 30.964844 33.851562 21.257812 28.015625 14.078125 26.167969 C 6.902344 24.277344 2.839844 25.59375 2.492188 25.777344 C 2.109375 25.964844 2.460938 26.023438 2.460938 26.023438 C 2.824219 26.089844 3.179688 26.183594 3.523438 26.308594 C 4.238281 26.539062 3.6875 26.910156 3.6875 26.910156 C 2.460938 27.300781 1.085938 27.054688 0.820312 26.492188 C 0.554688 25.929688 1 25.421875 1.511719 24.699219 C 2.027344 23.933594 2.585938 23.964844 2.585938 23.964844 C 11.457031 20.875 22.265625 26.460938 22.265625 26.460938 C 32.390625 31.621094 34.117188 37.667969 33.925781 40.011719 Z M 7.148438 39.699219 C 6.144531 40.195312 6.835938 40.910156 6.835938 40.910156 C 8.726562 42.949219 11.050781 44.226562 13.261719 45.019531 C 13.515625 41.5 13.476562 40.261719 13.507812 38.488281 C 10.054688 38.726562 8.058594 39.277344 7.148438 39.699219 Z M 99.464844 38.972656 L 99.464844 40.234375 C 99.464844 40.363281 99.414062 40.492188 99.320312 40.585938 C 99.230469 40.675781 99.101562 40.730469 98.972656 40.730469 L 93.003906 40.730469 C 93.003906 41.042969 93.011719 41.320312 93.011719 41.578125 C 93.019531 43.273438 92.933594 44.972656 92.757812 46.660156 C 92.734375 46.910156 92.523438 47.105469 92.273438 47.109375 L 90.980469 47.109375 C 90.851562 47.109375 90.726562 47.054688 90.640625 46.957031 C 90.550781 46.859375 90.507812 46.726562 90.527344 46.59375 C 90.707031 44.925781 90.796875 43.253906 90.792969 41.578125 C 90.792969 41.308594 90.792969 41.035156 90.78125 40.730469 L 84.878906 40.730469 C 84.75 40.730469 84.625 40.675781 84.53125 40.585938 C 84.4375 40.492188 84.386719 40.363281 84.386719 40.234375 L 84.386719 38.972656 C 84.386719 38.84375 84.4375 38.714844 84.53125 38.621094 C 84.625 38.527344 84.75 38.476562 84.878906 38.476562 L 90.695312 38.476562 C 90.578125 36.453125 90.324219 34.441406 89.929688 32.449219 C 89.90625 32.328125 89.9375 32.203125 90.015625 32.109375 C 90.089844 32.011719 90.203125 31.957031 90.328125 31.957031 L 91.722656 31.957031 C 91.941406 31.957031 92.125 32.113281 92.167969 32.328125 C 92.550781 34.359375 92.804688 36.414062 92.925781 38.476562 L 98.972656 38.476562 C 99.242188 38.484375 99.460938 38.703125 99.464844 38.972656 Z M 99.464844 38.972656 "/>
<path style=" stroke:none;fill-rule:nonzero;fill:url(#radial0);" d="M 91.34375 28.988281 C 85.53125 14.625 72.296875 4.667969 56.949219 3.109375 C 41.601562 1.550781 26.652344 8.648438 18.097656 21.550781 C 18.015625 21.675781 17.992188 21.835938 18.042969 21.980469 C 18.085938 22.125 18.203125 22.238281 18.347656 22.285156 L 19.429688 22.65625 C 19.488281 22.675781 19.554688 22.683594 19.617188 22.6875 C 19.816406 22.683594 20.003906 22.582031 20.121094 22.417969 C 27.460938 11.550781 39.683594 5.042969 52.753906 5.042969 C 68.605469 5.046875 82.921875 14.582031 89.101562 29.257812 C 89.191406 29.46875 89.394531 29.609375 89.625 29.609375 L 90.914062 29.609375 C 91.066406 29.609375 91.203125 29.535156 91.285156 29.410156 C 91.378906 29.289062 91.402344 29.128906 91.34375 28.988281 Z M 19.617188 22.363281 C 19.589844 22.359375 19.558594 22.351562 19.53125 22.34375 C 19.558594 22.351562 19.589844 22.359375 19.617188 22.363281 Z M 89.359375 29.4375 C 89.386719 29.457031 89.414062 29.472656 89.445312 29.484375 C 89.417969 29.464844 89.386719 29.457031 89.359375 29.4375 Z M 89.359375 29.4375 "/>
</g>
</svg>
