<?xml version="1.0" encoding="UTF-8"?>
<svg xmlns="http://www.w3.org/2000/svg" xmlns:xlink="http://www.w3.org/1999/xlink" width="100px" height="57px" viewBox="0 0 100 57" version="1.1">
<defs>
<radialGradient id="radial0" gradientUnits="userSpaceOnUse" cx="1775.1387" cy="146.1262" fx="1775.1387" fy="146.1262" r="756.5562" gradientTransform="matrix(0.0891199,-0.00000815044,0.00000808671,0.0898222,-70.125899,15.826446)">
<stop offset="0" style="stop-color:rgb(0.392157%,7.843137%,48.235294%);stop-opacity:1;"/>
<stop offset="0.0254902" style="stop-color:rgb(0.392157%,6.27451%,59.607843%);stop-opacity:1;"/>
<stop offset="0.0643086" style="stop-color:rgb(0.392157%,3.921569%,74.117647%);stop-opacity:1;"/>
<stop offset="0.1032" style="stop-color:rgb(0%,2.352941%,85.490196%);stop-opacity:1;"/>
<stop offset="0.1416" style="stop-color:rgb(0%,1.176471%,93.333333%);stop-opacity:1;"/>
<stop offset="0.1794" style="stop-color:rgb(0%,0.392157%,98.431373%);stop-opacity:1;"/>
<stop offset="0.2159" style="stop-color:rgb(0%,0%,100%);stop-opacity:1;"/>
<stop offset="1" style="stop-color:rgb(0%,100%,100%);stop-opacity:0;"/>
</radialGradient>
</defs>
<g id="surface1">
<path style=" stroke:none;fill-rule:nonzero;fill:rgb(0.392157%,7.843137%,48.235294%);fill-opacity:1;" d="M 45.261719 38.390625 C 45.316406 38.390625 45.316406 38.390625 45.375 38.410156 C 46.234375 38.523438 47.078125 38.671875 47.714844 38.976562 C 48.316406 39.238281 48.671875 39.578125 48.988281 40.183594 C 49.476562 41.089844 49.511719 42.355469 49.0625 43.316406 C 48.726562 44.035156 48.015625 44.636719 47.359375 44.957031 C 46.683594 45.296875 46.011719 45.449219 45.242188 45.542969 C 43.894531 45.695312 42.433594 45.410156 41.234375 44.824219 C 40.523438 44.46875 39.644531 43.863281 39.195312 43.089844 C 38.875 42.523438 38.875 41.769531 39.269531 41.222656 C 39.90625 40.351562 41.253906 40.164062 42.265625 40.203125 C 43.035156 40.238281 44.4375 40.464844 45.167969 40.730469 C 45.375 40.804688 46.125 41.109375 46.253906 41.238281 C 46.347656 41.335938 46.40625 41.464844 46.367188 41.597656 C 46.199219 42.109375 44.945312 42.390625 44.589844 42.449219 C 43.613281 42.597656 43.128906 42.222656 42.023438 41.789062 C 41.742188 41.675781 41.386719 41.5625 41.105469 41.542969 C 40.597656 41.484375 40 41.636719 39.90625 42.183594 C 39.851562 42.46875 40.1875 42.730469 40.429688 42.84375 C 41.011719 43.109375 41.5 43.183594 42.078125 43.203125 C 43.78125 43.222656 45.710938 42.9375 47.117188 41.9375 C 47.304688 41.804688 47.492188 41.597656 47.492188 41.351562 C 47.492188 40.84375 46.609375 40.523438 46.609375 40.523438 C 45.675781 40.125 43.914062 39.9375 43.035156 39.863281 C 42.097656 39.785156 40.597656 39.65625 40.242188 39.597656 C 39.867188 39.542969 39.476562 39.464844 39.15625 39.332031 C 38.839844 39.183594 38.519531 38.863281 38.425781 38.503906 C 38.257812 37.863281 38.464844 37.070312 38.820312 36.539062 C 39.757812 35.179688 41.949219 34.671875 43.59375 34.464844 C 45.1875 34.257812 47.753906 34.277344 49.308594 35.105469 C 49.550781 35.238281 49.664062 35.351562 49.625 35.617188 C 49.53125 36.105469 49.15625 36.410156 48.726562 36.558594 C 48.257812 36.710938 47.304688 36.765625 46.890625 36.785156 C 45.019531 36.898438 42.753906 36.84375 40.953125 37.332031 C 40.824219 37.371094 40.582031 37.445312 40.488281 37.523438 C 40.207031 37.824219 41.011719 37.917969 41.179688 37.957031 C 41.234375 37.976562 41.234375 37.976562 41.292969 37.976562 L 45.261719 38.390625 M 34.082031 29.953125 C 34.082031 29.953125 34.382812 29.5 34.644531 29.140625 C 35.113281 28.5 35.953125 27.613281 36.589844 27.066406 C 36.777344 26.894531 37.023438 26.707031 37.023438 26.707031 C 37.023438 26.707031 36.667969 26.746094 36.460938 26.78125 C 35.972656 26.875 35.28125 27.347656 34.925781 27.652344 C 34.34375 28.160156 33.707031 28.972656 33.988281 29.6875 C 34.027344 29.820312 34.082031 29.953125 34.082031 29.953125 M 37.320312 30.820312 C 38.238281 30.765625 39.101562 30.480469 39.90625 30.046875 C 40.691406 29.613281 41.855469 28.746094 41.722656 27.726562 C 41.683594 27.40625 41.480469 27.140625 41.199219 27.027344 C 40.84375 26.875 40.675781 26.894531 40.226562 27.027344 C 39.90625 27.121094 39.757812 27.179688 39.4375 27.367188 C 38.539062 27.894531 37.246094 29.027344 36.554688 29.933594 C 36.386719 30.140625 36.234375 30.386719 36.105469 30.558594 C 36.03125 30.652344 35.953125 30.746094 35.972656 30.785156 C 36.011719 30.859375 36.964844 30.859375 37.320312 30.820312 M 34.980469 32.558594 C 34.886719 32.652344 34.792969 32.898438 34.683594 33.085938 C 34.625 33.179688 34.53125 33.292969 34.457031 33.351562 C 34.214844 33.519531 34.007812 33.539062 33.78125 33.332031 C 33.464844 33.046875 33.277344 32.59375 33.257812 32.160156 C 33.257812 31.972656 33.277344 31.765625 33.238281 31.59375 C 33.183594 31.332031 32.921875 31.046875 32.773438 30.785156 C 32.601562 30.480469 32.472656 29.953125 32.453125 29.613281 C 32.398438 28.539062 32.957031 27.554688 33.671875 26.78125 C 34.402344 25.988281 35.355469 25.347656 36.40625 24.894531 C 37.378906 24.480469 38.820312 24.195312 39.90625 24.574219 C 40.261719 24.6875 40.75 24.988281 40.992188 25.308594 C 41.046875 25.367188 41.085938 25.441406 41.140625 25.480469 C 41.199219 25.519531 41.3125 25.519531 41.421875 25.535156 C 41.761719 25.59375 42.265625 25.859375 42.472656 26.027344 C 42.882812 26.386719 43.109375 26.726562 43.203125 27.214844 C 43.410156 28.199219 42.847656 29.292969 42.210938 29.953125 C 41.105469 31.085938 40.019531 31.878906 38.613281 32.445312 C 37.996094 32.691406 37.042969 32.917969 36.328125 32.859375 C 36.105469 32.839844 35.878906 32.785156 35.675781 32.765625 C 35.5625 32.746094 35.167969 32.652344 35.132812 32.632812 C 35.054688 32.578125 35 32.558594 34.980469 32.558594 M 36.234375 34.746094 C 36.273438 34.746094 36.347656 34.765625 36.40625 34.804688 C 36.890625 34.992188 37.097656 35.445312 37.226562 35.957031 C 37.507812 37.125 37.621094 39.730469 37.679688 40.75 C 37.714844 41.503906 37.734375 42.257812 37.773438 43.015625 C 37.789062 43.65625 37.847656 44.503906 37.714844 45.089844 C 37.660156 45.296875 37.527344 45.5625 37.320312 45.675781 C 37.078125 45.828125 36.554688 45.84375 36.253906 45.769531 C 35.523438 45.617188 35.300781 45.148438 35.1875 44.429688 C 34.945312 42.710938 35.054688 39.332031 35.207031 37.917969 C 35.261719 37.445312 35.429688 35.9375 35.675781 35.3125 C 35.75 35.125 35.9375 34.691406 36.234375 34.746094 M 14.269531 37.617188 C 14.269531 37.617188 13.203125 37.691406 12.453125 37.765625 C 11.515625 37.863281 9.738281 38.183594 8.726562 38.542969 C 8.425781 38.65625 7.789062 38.917969 7.753906 39.238281 C 7.695312 39.558594 7.902344 39.824219 8.128906 40.089844 C 8.257812 40.238281 8.988281 40.957031 9.195312 41.125 C 10.054688 41.863281 11.816406 42.976562 13.109375 43.523438 C 13.558594 43.710938 14.289062 43.976562 14.289062 43.976562 C 14.289062 43.976562 14.230469 41.863281 14.25 39.785156 C 14.25 38.691406 14.269531 37.617188 14.269531 37.617188 M 33.96875 38.445312 C 34.027344 39.011719 33.894531 40.089844 33.859375 40.222656 C 33.820312 40.542969 33.578125 41.296875 33.519531 41.390625 C 33.316406 41.84375 33.128906 42.222656 32.921875 42.597656 C 32.566406 43.242188 31.722656 44.261719 31.234375 44.695312 C 29.382812 46.296875 26.515625 47.222656 24.0625 47.523438 C 22.398438 47.734375 20.488281 47.695312 18.707031 47.375 C 18.109375 47.261719 17.191406 47.054688 17.191406 47.054688 C 17.191406 47.054688 17.191406 47.410156 17.171875 47.675781 C 17.152344 47.789062 17.078125 48.109375 17.023438 48.203125 C 16.890625 48.46875 16.683594 48.601562 16.386719 48.675781 C 16.011719 48.753906 15.617188 48.769531 15.28125 48.621094 C 14.71875 48.375 14.511719 47.847656 14.417969 47.242188 C 14.34375 46.75 14.25 45.902344 14.25 45.902344 C 14.25 45.902344 13.839844 45.695312 13.484375 45.523438 C 12.414062 44.996094 11.386719 44.335938 10.488281 43.675781 C 10.242188 43.484375 9.175781 42.597656 8.933594 42.371094 C 8.277344 41.75 7.679688 41.109375 7.226562 40.316406 C 6.871094 39.691406 6.777344 39.125 7.042969 38.464844 C 7.414062 37.539062 8.726562 36.84375 9.625 36.445312 C 10.28125 36.144531 12.359375 35.464844 13.203125 35.351562 C 13.613281 35.292969 14.230469 35.179688 14.269531 35.164062 C 14.289062 35.144531 14.289062 35.144531 14.308594 35.125 C 14.324219 35.105469 14.363281 34.179688 14.34375 33.839844 C 14.34375 33.5 14.589844 31.351562 14.664062 30.878906 C 14.699219 30.632812 14.886719 29.671875 15.074219 29.425781 C 15.207031 29.253906 15.410156 29.273438 15.597656 29.386719 C 16.574219 30.011719 16.871094 32.144531 16.949219 33.21875 C 16.984375 33.878906 17.023438 34.878906 17.023438 34.878906 C 17.023438 34.878906 18.144531 34.839844 18.839844 34.859375 C 19.511719 34.878906 20.261719 34.992188 20.953125 35.085938 C 21.855469 35.238281 23.59375 35.617188 24.589844 36.125 C 25.410156 36.539062 26.179688 37.257812 26.441406 38.011719 C 26.667969 38.691406 26.648438 39.183594 26.292969 39.804688 C 25.898438 40.503906 25.148438 41.03125 24.382812 41.070312 C 24.15625 41.089844 23.296875 40.976562 23.035156 40.769531 C 22.941406 40.691406 22.941406 40.542969 23.015625 40.449219 C 23.035156 40.410156 23.445312 40.203125 23.671875 40.070312 C 23.78125 40.011719 23.894531 39.9375 23.96875 39.84375 C 24.15625 39.671875 24.34375 39.484375 24.324219 39.257812 C 24.308594 38.976562 23.988281 38.785156 23.707031 38.671875 C 22.339844 38.125 19.605469 37.671875 18.296875 37.597656 C 17.773438 37.558594 17.042969 37.539062 17.042969 37.539062 L 17.191406 44.882812 C 17.191406 44.882812 17.789062 44.996094 18.277344 45.070312 C 18.558594 45.109375 19.71875 45.222656 20.019531 45.222656 C 22.378906 45.277344 25 45.070312 27.152344 44.050781 C 28.109375 43.597656 28.96875 43.050781 29.625 42.277344 C 30.488281 41.277344 30.953125 39.898438 30.824219 38.464844 C 30.691406 36.898438 29.605469 35.050781 28.726562 33.917969 C 26.421875 30.933594 22.472656 28.460938 18.988281 27.027344 C 15.429688 25.554688 11.929688 24.707031 8.164062 24.574219 C 7.191406 24.535156 5.074219 24.59375 4.007812 24.894531 C 3.859375 24.933594 3.707031 24.988281 3.558594 25.027344 C 3.445312 25.046875 3.277344 25.121094 3.222656 25.179688 C 3.203125 25.195312 3.164062 25.234375 3.164062 25.234375 C 3.164062 25.234375 3.238281 25.273438 3.296875 25.292969 C 3.410156 25.347656 3.894531 25.367188 4.136719 25.421875 C 4.363281 25.460938 4.589844 25.574219 4.683594 25.746094 C 4.773438 25.894531 4.773438 26.027344 4.683594 26.160156 C 4.4375 26.460938 3.519531 26.40625 3.128906 26.347656 C 2.714844 26.273438 2.191406 26.160156 2.097656 25.78125 C 1.984375 25.347656 2.191406 24.933594 2.414062 24.535156 C 2.863281 23.742188 3.484375 23.347656 4.417969 23.082031 C 5.730469 22.722656 7.398438 22.460938 8.632812 22.421875 C 11.441406 22.308594 14.101562 22.820312 16.835938 23.648438 C 18.390625 24.121094 20.429688 24.914062 21.929688 25.648438 C 22.996094 26.179688 24.699219 27.121094 25.636719 27.765625 C 25.9375 27.972656 27.695312 29.253906 27.957031 29.480469 C 28.519531 29.953125 29.269531 30.613281 29.8125 31.160156 C 30.863281 32.199219 32.152344 33.785156 32.773438 35.066406 C 32.921875 35.371094 33.035156 35.671875 33.238281 36.011719 C 33.316406 36.125 33.59375 36.84375 33.632812 37.050781 C 33.6875 37.257812 33.746094 37.558594 33.765625 37.578125 C 33.859375 37.597656 33.988281 38.203125 33.96875 38.445312 Z M 69.34375 36.824219 C 68.035156 37.125 64.570312 37.296875 64.570312 37.296875 L 64.136719 38.671875 C 64.136719 38.671875 65.863281 38.523438 67.136719 38.65625 C 67.136719 38.65625 67.546875 38.597656 67.585938 39.125 C 67.601562 39.597656 67.546875 40.125 67.546875 40.125 C 67.546875 40.125 67.527344 40.449219 67.078125 40.523438 C 66.609375 40.597656 63.351562 40.730469 63.351562 40.730469 L 62.828125 42.523438 C 62.828125 42.523438 62.640625 42.9375 63.070312 42.824219 C 63.484375 42.710938 66.890625 42.070312 67.339844 42.164062 C 67.808594 42.277344 68.351562 42.917969 68.183594 43.503906 C 67.996094 44.222656 64.589844 46.410156 62.527344 46.261719 C 62.527344 46.261719 61.441406 46.335938 60.523438 44.84375 C 59.664062 43.429688 60.84375 40.75 60.84375 40.75 C 60.84375 40.75 60.300781 39.503906 60.691406 39.070312 C 60.691406 39.070312 60.917969 38.863281 61.609375 38.804688 L 62.453125 37.070312 C 62.453125 37.070312 61.5 37.125 60.9375 36.425781 C 60.410156 35.765625 60.375 35.445312 60.769531 35.277344 C 61.199219 35.066406 65.167969 34.332031 67.882812 34.425781 C 67.882812 34.425781 68.839844 34.332031 69.644531 35.992188 C 69.625 35.992188 70.019531 36.671875 69.34375 36.824219 Z M 59.101562 43.523438 C 58.746094 44.355469 57.828125 45.242188 56.683594 44.695312 C 55.5625 44.148438 53.746094 40.429688 53.746094 40.429688 C 53.746094 40.429688 53.050781 39.050781 52.921875 39.070312 C 52.921875 39.070312 52.773438 38.804688 52.679688 40.316406 C 52.585938 41.824219 52.695312 44.769531 52.097656 45.222656 C 51.535156 45.695312 50.84375 45.503906 50.488281 44.957031 C 50.167969 44.429688 50.039062 43.144531 50.207031 40.917969 C 50.410156 38.691406 50.9375 36.3125 51.589844 35.578125 C 52.246094 34.839844 52.773438 35.371094 52.976562 35.578125 C 52.976562 35.578125 53.859375 36.390625 55.300781 38.730469 L 55.5625 39.164062 C 55.5625 39.164062 56.871094 41.390625 57.023438 41.390625 C 57.023438 41.390625 57.136719 41.484375 57.226562 41.410156 C 57.359375 41.371094 57.304688 40.65625 57.304688 40.65625 C 57.304688 40.65625 57.023438 38.21875 55.824219 34.125 C 55.824219 34.125 55.636719 33.613281 55.769531 33.125 C 55.898438 32.632812 56.367188 32.859375 56.367188 32.859375 C 56.367188 32.859375 58.222656 33.804688 59.136719 36.859375 C 60.054688 39.917969 59.4375 42.695312 59.101562 43.523438 Z M 79.121094 41.691406 C 78.277344 43.183594 75.878906 46.296875 72.695312 45.5625 C 71.648438 48.128906 70.769531 50.734375 70.261719 54.601562 C 70.261719 54.601562 70.148438 55.359375 69.53125 55.09375 C 68.914062 54.867188 67.902344 53.847656 67.695312 52.414062 C 67.472656 50.527344 68.316406 47.355469 70 43.710938 C 69.511719 42.902344 69.175781 41.75 69.457031 40.089844 C 69.457031 40.089844 69.886719 37.03125 72.941406 34.277344 C 72.941406 34.277344 73.316406 33.953125 73.519531 34.050781 C 73.746094 34.144531 73.652344 35.144531 73.464844 35.632812 C 73.277344 36.125 71.910156 38.484375 71.910156 38.484375 C 71.910156 38.484375 71.066406 40.089844 71.292969 41.351562 C 72.882812 38.878906 76.535156 33.878906 78.78125 35.445312 C 79.53125 35.992188 79.886719 37.183594 79.886719 38.464844 C 79.886719 39.597656 79.625 40.785156 79.121094 41.691406 Z M 78.464844 37.765625 C 78.464844 37.765625 78.332031 36.785156 77.378906 37.863281 C 76.554688 38.785156 75.074219 40.503906 73.875 42.824219 C 75.132812 42.675781 76.328125 41.996094 76.703125 41.65625 C 77.304688 41.125 78.6875 39.671875 78.464844 37.765625 Z M 96.648438 37.539062 L 90.824219 37.539062 C 90.710938 35.539062 90.46875 33.597656 90.09375 31.59375 C 90.054688 31.386719 89.867188 31.238281 89.664062 31.238281 L 88.316406 31.238281 C 88.203125 31.238281 88.089844 31.292969 88.015625 31.386719 C 87.941406 31.480469 87.902344 31.59375 87.941406 31.726562 C 88.316406 33.671875 88.558594 35.578125 88.6875 37.558594 L 83.089844 37.558594 C 82.828125 37.558594 82.621094 37.765625 82.621094 38.03125 L 82.621094 39.257812 C 82.621094 39.523438 82.828125 39.730469 83.089844 39.730469 L 88.78125 39.730469 C 88.78125 40.03125 88.78125 40.296875 88.78125 40.5625 C 88.78125 42.316406 88.707031 43.769531 88.539062 45.410156 C 88.519531 45.542969 88.558594 45.65625 88.652344 45.75 C 88.726562 45.84375 88.859375 45.902344 88.96875 45.902344 L 90.226562 45.902344 C 90.46875 45.902344 90.675781 45.714844 90.691406 45.46875 C 90.863281 43.824219 90.9375 42.355469 90.9375 40.5625 C 90.9375 40.316406 90.9375 40.03125 90.9375 39.730469 L 96.683594 39.730469 C 96.949219 39.730469 97.152344 39.523438 97.152344 39.257812 L 97.152344 38.03125 C 97.117188 37.75 96.910156 37.539062 96.648438 37.539062 Z M 96.648438 37.539062 "/>
<path style=" stroke:none;fill-rule:nonzero;fill:url(#radial0);" d="M 89.289062 28.367188 C 86.328125 21.007812 81.292969 14.722656 74.773438 10.230469 C 68.089844 5.605469 60.261719 3.171875 52.117188 3.171875 C 38.652344 3.171875 26.179688 9.910156 18.726562 21.195312 C 18.652344 21.308594 18.632812 21.480469 18.671875 21.609375 C 18.726562 21.761719 18.820312 21.855469 18.96875 21.914062 L 20.019531 22.273438 C 20.074219 22.289062 20.148438 22.308594 20.207031 22.308594 C 20.394531 22.308594 20.582031 22.214844 20.691406 22.046875 C 24.121094 16.988281 28.746094 12.757812 34.082031 9.851562 C 39.589844 6.851562 45.84375 5.246094 52.136719 5.246094 C 59.757812 5.246094 67.097656 7.511719 73.371094 11.796875 C 79.496094 15.96875 84.269531 21.800781 87.136719 28.652344 C 87.226562 28.859375 87.414062 28.992188 87.640625 28.992188 L 88.894531 28.992188 C 89.046875 28.992188 89.175781 28.914062 89.25 28.800781 C 89.34375 28.652344 89.34375 28.5 89.289062 28.367188 Z M 89.289062 28.367188 "/>
</g>
</svg>
